<svg id="SvgjsSvg1052" width="288" height="288" xmlns="http://www.w3.org/2000/svg" version="1.1" xmlns:xlink="http://www.w3.org/1999/xlink" xmlns:svgjs="http://svgjs.com/svgjs"><defs id="SvgjsDefs1053"></defs><g id="SvgjsG1054"><svg xmlns="http://www.w3.org/2000/svg" viewBox="0 0 48 48" width="288" height="288"><path d="M40.14,14.46,30.8,4.9A3,3,0,0,0,28.66,4H14a3,3,0,0,0-3,3V8H10a3,3,0,0,0-3,3v5a1,1,0,0,0,2,0V11a1,1,0,0,1,1-1h1V37a3,3,0,0,0,3,3H35v1a1,1,0,0,1-1,1H10a1,1,0,0,1-1-1V20a1,1,0,0,0-2,0V41a3,3,0,0,0,3,3H34a3,3,0,0,0,3-3V40h1a3,3,0,0,0,3-3V16.55A2.93,2.93,0,0,0,40.14,14.46ZM31,8l6.88,7H32a1,1,0,0,1-1-1Zm8,29a1,1,0,0,1-1,1H14a1,1,0,0,1-1-1V7a1,1,0,0,1,1-1H28.66a1,1,0,0,1,.34.07V14a3,3,0,0,0,3,3h7Zm-7.29-9.71a1,1,0,0,1,0,1.42l-5,5a1,1,0,0,1-1.42,0l-5-5a1,1,0,0,1,1.42-1.42L25,30.59V20a1,1,0,0,1,2,0V30.59l3.29-3.3A1,1,0,0,1,31.71,27.29Z" data-name="44 Download Files" fill="#ffffff" class="color000 svgShape"></path></svg></g></svg>